<?xml version="1.0" encoding="UTF-8" standalone="no"?>
<!-- Created with Inkscape (http://www.inkscape.org/) -->

<svg
   version="1.1"
   id="svg1"
   width="512"
   height="512.00006"
   viewBox="0 0 512 512.00006"
   xmlns="http://www.w3.org/2000/svg"
   xmlns:svg="http://www.w3.org/2000/svg">
  <defs
     id="defs1" />
  <g
     id="g1">
    <g
       id="g2"
       transform="matrix(1.000562,0,0,1.000562,-0.15798347,-0.12973295)">
      <path
         style="fill:#fdfdfd"
         d="m 98,375 v -38 h 8.98466 8.98467 l 0.26533,28.75 0.26534,28.75 50.25,0.25925 50.25,0.25925 V 404.00925 413 H 157.5 98 Z m 198,29.00925 V 395.0185 L 346.25,394.75925 396.5,394.5 396.76534,365.75 397.03067,337 H 406.51534 416 v 38 38 H 356 296 Z M 218,253.5 V 194 h 8.99075 8.99075 l 0.25925,50.25 0.25925,50.25 29.25,0.2651 29.25,0.26511 V 304.0151 313 H 256.5 218 Z M 98,133 V 95 h 59.5 59.5 v 8.49075 8.49075 L 166.75,112.24075 116.5,112.5 116.2349,141.75 115.96979,171 H 106.9849 98 Z m 299,8.5 V 112 H 346.5 296 V 103.5 95 h 60 60 v 38 38 h -9.5 -9.5 z"
         id="path9" />
      <path
         style="fill:#d2d2d2"
         d="m 114.75,511.33772 c 0.6875,-0.27741 1.8125,-0.27741 2.5,0 0.6875,0.27741 0.125,0.50439 -1.25,0.50439 -1.375,0 -1.9375,-0.22698 -1.25,-0.50439 z m 280,0 c 0.6875,-0.27741 1.8125,-0.27741 2.5,0 0.6875,0.27741 0.125,0.50439 -1.25,0.50439 -1.375,0 -1.9375,-0.22698 -1.25,-0.50439 z M 45.404988,481.75 43.5,479.5 l 2.25,1.90499 c 1.2375,1.04774 2.25,2.06024 2.25,2.25 0,0.80025 -0.804794,0.20945 -2.595012,-1.90499 z M 465.5,482 c 0.99549,-1.1 2.03498,-2 2.30998,-2 0.275,0 -0.31449,0.9 -1.30998,2 -0.99549,1.1 -2.03498,2 -2.30998,2 -0.275,0 0.31449,-0.9 1.30998,-2 z M 36.946167,474.25 33.5,470.5 l 3.75,3.44617 c 2.0625,1.89539 3.75,3.58289 3.75,3.75 0,0.76362 -0.846216,0.0442 -4.053833,-3.44617 z M 474,474.5 c 1.86578,-1.925 3.61733,-3.5 3.89233,-3.5 0.275,0 -1.02655,1.575 -2.89233,3.5 -1.86578,1.925 -3.61733,3.5 -3.89233,3.5 -0.275,0 1.02655,-1.575 2.89233,-3.5 z M 29.404988,465.75 27.5,463.5 l 2.25,1.90499 C 31.864445,467.19521 32.455241,468 31.654988,468 c -0.189757,0 -1.202257,-1.0125 -2.25,-2.25 z M 481.5,466 c 0.99549,-1.1 2.03498,-2 2.30998,-2 0.275,0 -0.31449,0.9 -1.30998,2 -0.99549,1.1 -2.03498,2 -2.30998,2 -0.275,0 0.31449,-0.9 1.30998,-2 z M 97.481939,374.75022 97.5,336.5 l 9.25252,-0.0596 9.25252,-0.0596 -8.99067,0.34695 -8.990676,0.34695 -0.279908,37.96285 -0.279909,37.96285 z M 217.20355,404.25 217,395 h -49.94098 c -27.46754,0 -50.14972,-0.3375 -50.40483,-0.75 -0.25512,-0.4125 22.23558,-0.62935 49.97932,-0.48188 40.58067,0.2157 50.54186,0.52532 50.94796,1.58359 0.27764,0.72351 0.35198,5.10285 0.16521,9.73188 L 217.40709,413.5 Z M 0.15789474,396 c 0,-1.375 0.22697368,-1.9375 0.50438596,-1.25 0.27741228,0.6875 0.27741228,1.8125 0,2.5 -0.27741228,0.6875 -0.50438596,0.125 -0.50438596,-1.25 z M 511.15789,396 c 0,-1.375 0.22698,-1.9375 0.50439,-1.25 0.27741,0.6875 0.27741,1.8125 0,2.5 -0.27741,0.6875 -0.50439,0.125 -0.50439,-1.25 z M 320.75,394.25079 c 13.8875,-0.15682 36.6125,-0.15682 50.5,0 13.8875,0.15682 2.525,0.28513 -25.25,0.28513 -27.775,0 -39.1375,-0.12831 -25.25,-0.28513 z m 80.5,-57.98583 c 2.6125,-0.206 6.8875,-0.206 9.5,0 2.6125,0.206 0.475,0.37454 -4.75,0.37454 -5.225,0 -7.3625,-0.16854 -4.75,-0.37454 z m -145,-23.00863 38.75,-0.27982 v -8.97315 -8.97315 L 265.75,294.7651 236.5,294.5 l -0.25923,-50.2126 -0.25923,-50.21259 -8.74077,-0.34365 -8.74077,-0.34364 9,0.0562 9,0.0562 0.25924,50.23491 0.25924,50.23491 29.24076,0.26509 L 295.5,294.5 v 9.5 9.5 l -39,0.0181 -39,0.0181 z M 97.454192,133 c 0,-21.175 0.132524,-29.8375 0.294497,-19.25 0.161973,10.5875 0.161973,27.9125 0,38.5 -0.161973,10.5875 -0.294497,1.925 -0.294497,-19.25 z M 0.15789474,116 c 0,-1.375 0.22697368,-1.9375 0.50438596,-1.25 0.27741228,0.6875 0.27741228,1.8125 0,2.5 -0.27741228,0.6875 -0.50438596,0.125 -0.50438596,-1.25 z M 511.15789,116 c 0,-1.375 0.22698,-1.9375 0.50439,-1.25 0.27741,0.6875 0.27741,1.8125 0,2.5 -0.27741,0.6875 -0.50439,0.125 -0.50439,-1.25 z m -394.50384,-3.25 c 0.25519,-0.4125 22.91991,-0.75 50.36603,-0.75 h 49.90205 l 0.34728,-8.25 0.34727,-8.25 -0.0583,8.5 -0.0583,8.5 -50.65496,0.5 c -27.86023,0.275 -50.44618,0.1625 -50.19099,-0.25 z m 204.66585,-0.49938 c 14.20094,-0.15657 37.15094,-0.15643 51,3.1e-4 13.84905,0.15675 2.2301,0.28484 -25.8199,0.28467 -28.05,-1.7e-4 -39.38105,-0.12842 -25.1801,-0.28498 z M 29.5,46 c 0.995486,-1.1 2.034975,-2 2.309975,-2 0.275,0 -0.314489,0.9 -1.309975,2 -0.995486,1.1 -2.034975,2 -2.309975,2 -0.275,0 0.314489,-0.9 1.309975,-2 z M 481.40499,45.75 479.5,43.5 l 2.25,1.904988 c 1.2375,1.047743 2.25,2.060243 2.25,2.25 0,0.800253 -0.80479,0.209457 -2.59501,-1.904988 z M 37,37.5 C 38.865783,35.575 40.617334,34 40.892334,34 41.167334,34 39.865783,35.575 38,37.5 36.134217,39.425 34.382666,41 34.107666,41 33.832666,41 35.134217,39.425 37,37.5 Z M 473.94617,37.25 470.5,33.5 l 3.75,3.446167 c 2.0625,1.895392 3.75,3.582892 3.75,3.75 0,0.76362 -0.84622,0.04425 -4.05383,-3.446167 z M 45.5,30 c 0.995486,-1.1 2.034975,-2 2.309975,-2 0.275,0 -0.314489,0.9 -1.309975,2 -0.995486,1.1 -2.034975,2 -2.309975,2 -0.275,0 0.314489,-0.9 1.309975,-2 z M 465.40499,29.75 463.5,27.5 l 2.25,1.904988 c 1.2375,1.047743 2.25,2.060243 2.25,2.25 0,0.800253 -0.80479,0.209457 -2.59501,-1.904988 z M 114.75,0.3377193 c 0.6875,-0.27741228 1.8125,-0.27741228 2.5,0 0.6875,0.27741228 0.125,0.50438596 -1.25,0.50438596 -1.375,0 -1.9375,-0.22697368 -1.25,-0.50438596 z m 280,0 c 0.6875,-0.27741228 1.8125,-0.27741228 2.5,0 0.6875,0.27741228 0.125,0.50438596 -1.25,0.50438596 -1.375,0 -1.9375,-0.22697368 -1.25,-0.50438596 z"
         id="path8" />
      <path
         style="fill:#b2b2b2"
         d="M 41.872445,478.25 C 40.628574,476.66394 40.663944,476.62857 42.25,477.87244 43.915748,479.17881 44.445479,480 43.622445,480 c -0.207656,0 -0.995156,-0.7875 -1.75,-1.75 z M 468,479.62244 c 0,-0.20765 0.7875,-0.99515 1.75,-1.75 1.58606,-1.24387 1.62143,-1.2085 0.37756,0.37756 C 468.82119,479.91575 468,480.44548 468,479.62244 Z M 32.872445,469.25 c -1.243871,-1.58606 -1.208501,-1.62143 0.377555,-0.37756 0.9625,0.75485 1.75,1.54235 1.75,1.75 0,0.82304 -0.821186,0.29331 -2.127555,-1.37244 z M 477,470.62244 c 0,-0.20765 0.7875,-0.99515 1.75,-1.75 1.58606,-1.24387 1.62143,-1.2085 0.37756,0.37756 C 477.82119,470.91575 477,471.44548 477,470.62244 Z M 127.82176,413.25045 c 16.67697,-0.15399 43.67697,-0.15389 60,2.4e-4 16.32303,0.15412 2.67824,0.28012 -30.32176,0.27999 -33,-1.3e-4 -46.35521,-0.12623 -29.67824,-0.28023 z m 167.60372,-0.58404 c -0.28146,-0.73347 -0.35893,-5.12097 -0.17216,-9.75 l 0.33959,-8.41641 0.20354,9.24219 0.20355,9.2422 60.25,0.26576 60.25,0.26576 -60.28138,0.24204 c -49.48638,0.19871 -60.37303,0.003 -60.79314,-1.09154 z M 116.44052,365 c 0,-15.675 0.13824,-22.0875 0.3072,-14.25 0.16896,7.8375 0.16896,20.6625 0,28.5 -0.16896,7.8375 -0.3072,1.425 -0.3072,-14.25 z m 101.0288,-111.5 c 1.3e-4,-33 0.12623,-46.35521 0.28023,-29.67824 0.15399,16.67697 0.15389,43.67697 -2.4e-4,60 -0.15412,16.32303 -0.28012,2.67824 -0.27999,-30.32176 z m -110.98692,-82.22871 9.48705,-0.34335 0.2891,-28.71397 0.2891,-28.71397 -0.0238,29 -0.0238,29 -9.75232,0.0573 -9.752328,0.0573 z m 295.30112,-0.01 c 2.90594,-0.20265 7.40594,-0.20052 10,0.005 2.59406,0.20525 0.21648,0.37104 -5.28352,0.36844 -5.5,-0.003 -7.62242,-0.17053 -4.71648,-0.37317 z M 295.43437,103.5 l 0.0656,-9 60,-0.01171 60,-0.01171 -59.71118,0.269501 -59.71118,0.2695 -0.35445,8.742209 -0.35445,8.74221 z M 127.82176,94.250452 c 16.67697,-0.153996 43.67697,-0.15389 60,2.35e-4 16.32303,0.154126 2.67824,0.280122 -30.32176,0.279992 -33,-1.29e-4 -46.35521,-0.126232 -29.67824,-0.280227 z M 32,43.622445 c 0,-0.207656 0.7875,-0.995156 1.75,-1.75 C 35.336056,40.628574 35.371426,40.663944 34.127555,42.25 32.821186,43.915748 32,44.445479 32,43.622445 Z M 477.87244,42.25 C 476.62857,40.663944 476.66394,40.628574 478.25,41.872445 479.91575,43.178814 480.44548,44 479.62244,44 c -0.20765,0 -0.99515,-0.7875 -1.75,-1.75 z M 41,34.622445 c 0,-0.207656 0.7875,-0.995156 1.75,-1.75 C 44.336056,31.628574 44.371426,31.663944 43.127555,33.25 41.821186,34.915748 41,35.445479 41,34.622445 Z M 468.87244,33.25 c -1.24387,-1.586056 -1.2085,-1.621426 0.37756,-0.377555 0.9625,0.754844 1.75,1.542344 1.75,1.75 0,0.823034 -0.82119,0.293303 -2.12756,-1.372445 z"
         id="path7" />
      <path
         style="fill:#888888"
         d="M 37.437091,473.75 34.5,470.5 l 3.25,2.93709 C 40.779455,476.17487 41.459652,477 40.687091,477 c -0.1721,0 -1.6346,-1.4625 -3.25,-3.25 z M 471,476.68709 c 0,-0.1721 1.4625,-1.6346 3.25,-3.25 l 3.25,-2.93709 -2.93709,3.25 C 471.82513,476.77946 471,477.45965 471,476.68709 Z M 295.65405,393.75 c 0.25519,-0.4125 22.93042,-0.75 50.38939,-0.75 h 49.92541 l 0.28894,-27.75 0.28893,-27.75 -0.0234,28 -0.0234,28 -50.65496,0.5 c -27.86023,0.275 -50.44618,0.1625 -50.19099,-0.25 z M 141.75,393.25079 c 13.8875,-0.15682 36.6125,-0.15682 50.5,0 13.8875,0.15682 2.525,0.28513 -25.25,0.28513 -27.775,0 -39.1375,-0.12831 -25.25,-0.28513 z M 107,336 l -9.5,-0.61717 9.19098,-0.19141 c 5.2662,-0.10968 9.4549,0.23561 9.80902,0.80858 0.33992,0.55 0.47898,0.91386 0.30902,0.80858 C 116.63906,336.70331 112.225,336.33944 107,336 Z m 294.25,-0.73504 c 2.6125,-0.206 6.8875,-0.206 9.5,0 2.6125,0.206 0.475,0.37454 -4.75,0.37454 -5.225,0 -7.3625,-0.16854 -4.75,-0.37454 z M 396.44139,142.5 c 4.7e-4,-15.95 0.13854,-22.33497 0.30682,-14.18883 0.16828,8.14615 0.16789,21.19615 -8.6e-4,29 -0.16876,7.80386 -0.30644,1.13883 -0.30596,-14.81117 z M 35,40.687091 c 0,-0.1721 1.4625,-1.6346 3.25,-3.25 L 41.5,34.5 38.562909,37.75 C 35.825128,40.779455 35,41.459652 35,40.687091 Z M 473.43709,37.75 470.5,34.5 l 3.25,2.937091 c 1.7875,1.6154 3.25,3.0779 3.25,3.25 0,0.772561 -0.82513,0.09236 -3.56291,-2.937091 z"
         id="path6" />
      <path
         style="fill:#717171"
         d="m 416.45419,375 c 0,-21.175 0.13253,-29.8375 0.2945,-19.25 0.16197,10.5875 0.16197,27.9125 0,38.5 -0.16197,10.5875 -0.2945,1.925 -0.2945,-19.25 z m 0,-242 c 0,-21.175 0.13253,-29.8375 0.2945,-19.25 0.16197,10.5875 0.16197,27.9125 0,38.5 -0.16197,10.5875 -0.2945,1.925 -0.2945,-19.25 z M 141.75,113.25079 c 13.8875,-0.15682 36.6125,-0.15682 50.5,0 13.8875,0.15682 2.525,0.28513 -25.25,0.28513 -27.775,0 -39.1375,-0.12831 -25.25,-0.28513 z m 179,0 c 13.8875,-0.15682 36.6125,-0.15682 50.5,0 13.8875,0.15682 2.525,0.28513 -25.25,0.28513 -27.775,0 -39.1375,-0.12831 -25.25,-0.28513 z"
         id="path5" />
      <path
         style="fill:#545454"
         d="m 96.454706,374.5 c 2.83e-4,-21.45 0.132702,-30.0827 0.294265,-19.18378 0.161563,10.89892 0.161332,28.44892 -5.14e-4,39 C 96.586611,404.8673 96.454424,395.95 96.454706,374.5 Z M 237.46408,244 c 0,-27.775 0.12831,-39.1375 0.28513,-25.25 0.15682,13.8875 0.15682,36.6125 0,50.5 -0.15682,13.8875 -0.28513,2.525 -0.28513,-25.25 z M 96.482363,132.75021 96.5,93.5 l 60.75009,-0.01172 60.75009,-0.01172 -60.48849,0.269458 -60.488489,0.269457 -0.279238,38.992465 -0.279237,38.99247 z M 356,94 295.5,93.476553 355.69098,93.238276 C 394.99865,93.08267 416.09639,93.346951 416.5,94 c 0.33992,0.55 0.47898,0.892776 0.30902,0.761724 C 416.63906,94.630671 389.275,94.287896 356,94 Z"
         id="path4" />
      <path
         style="fill:#2d2d2d"
         d="m 95.456197,412.74645 c -0.264568,-0.68946 -0.362595,-18.12696 -0.217837,-38.75 L 95.501555,336.5 l 0.499223,38.75037 c 0.274572,21.31271 0.372599,38.75021 0.217837,38.75 -0.154761,-2e-4 -0.497849,-0.56447 -0.762418,-1.25392 z M 218.3605,404 c 0,-5.225 0.16854,-7.3625 0.37454,-4.75 0.206,2.6125 0.206,6.8875 0,9.5 -0.206,2.6125 -0.37454,0.475 -0.37454,-4.75 z m -76.0406,-11.74938 c 14.20094,-0.15657 37.15094,-0.15643 51,3.1e-4 13.84905,0.15675 2.2301,0.28484 -25.8199,0.28467 -28.05,-1.7e-4 -39.38105,-0.12842 -25.1801,-0.28498 z m 178,0 c 14.20094,-0.15657 37.15094,-0.15643 51,3.1e-4 13.84905,0.15675 2.2301,0.28484 -25.8199,0.28467 -28.05,-1.7e-4 -39.38105,-0.12842 -25.1801,-0.28498 z m -83.63612,-77.99908 c 10.55108,-0.16184 28.10108,-0.16207 39,-5.1e-4 10.89892,0.16156 2.26622,0.29398 -19.18378,0.29426 -21.45,2.9e-4 -30.3673,-0.1319 -19.81622,-0.29375 z M 296.36996,304 c 0,-5.775 0.16528,-8.1375 0.36728,-5.25 0.202,2.8875 0.202,7.6125 0,10.5 -0.202,2.8875 -0.36728,0.525 -0.36728,-5.25 z M 252.75,293.25228 c 7.8375,-0.16896 20.6625,-0.16896 28.5,0 7.8375,0.16896 1.425,0.3072 -14.25,0.3072 -15.675,0 -22.0875,-0.13824 -14.25,-0.3072 z M 227,193 l -10.5,-0.60851 10.19098,-0.19574 c 5.93663,-0.11403 10.44899,0.22171 10.80902,0.80425 0.33992,0.55 0.47898,0.91191 0.30902,0.80425 C 237.63906,193.69659 232.775,193.33468 227,193 Z M 95.454192,133 c 0,-21.175 0.132524,-29.8375 0.294497,-19.25 0.161973,10.5875 0.161973,27.9125 0,38.5 -0.161973,10.5875 -0.294497,1.925 -0.294497,-19.25 z M 142.3199,114.25062 c 14.20094,-0.15657 37.15094,-0.15643 51,3.1e-4 13.84905,0.15675 2.2301,0.28484 -25.8199,0.28467 -28.05,-1.7e-4 -39.38105,-0.12842 -25.1801,-0.28498 z m 178.49975,2e-5 c 13.92581,-0.1569 36.42581,-0.15675 50,3.3e-4 13.57419,0.15708 2.18035,0.28546 -25.31965,0.28528 -27.5,-1.8e-4 -38.60616,-0.12871 -24.68035,-0.28561 z M 218.35496,103.5 c -0.003,-4.95 0.16605,-7.101078 0.37577,-4.780173 0.20972,2.320903 0.21222,6.370903 0.006,9.000003 -0.20667,2.62909 -0.37827,0.73017 -0.38131,-4.21983 z"
         id="path3" />
      <path
         style="fill:#000000"
         d="M 117.63552,510.95713 C 59.953796,505.70392 13.194963,462.73648 2.2863183,404.9609 0.62497737,396.16192 0.5,385.74007 0.5,256 0.5,126.25993 0.62497737,115.83808 2.2863183,107.0391 12.437149,53.277139 53.277139,12.437149 107.0391,2.2863183 115.83808,0.62497737 126.25993,0.5 256,0.5 385.74007,0.5 396.16192,0.62497737 404.9609,2.2863183 458.72286,12.437149 499.56285,53.277139 509.71368,107.0391 511.37502,115.83808 511.5,126.25993 511.5,256 c 0,129.74007 -0.12498,140.16192 -1.78632,148.9609 -10.06791,53.32282 -50.22691,93.84405 -103.73357,104.66924 -7.73128,1.56416 -20.44534,1.73414 -143.98011,1.92498 -74.525,0.11512 -139.48902,-0.15397 -144.36448,-0.59799 z M 218.80649,406 c 0.16857,-4.125 0.0357,-8.9625 -0.29531,-10.75 L 217.90937,392 H 167.45469 117 V 363.5 335 h -10.39301 c -8.554577,0 -10.500384,0.2798 -11.000001,1.58179 -0.835482,2.17723 -0.770828,75.92104 0.0673,76.75916 0.370857,0.37086 28.158351,0.55836 61.750001,0.41667 L 218.5,413.5 Z M 417,374.5 V 335 H 406.5 396 V 363.5 392 H 345.5 295 v 11 11 h 61 61 z M 295.41821,314.39301 C 296.71281,313.89623 297,311.99333 297,303.91206 c 0,-9.40771 -0.10624,-9.9003 -2.25,-10.43177 -1.2375,-0.3068 -14.50874,-0.42788 -29.49163,-0.26906 L 238.01673,293.5 237.75837,243 237.5,192.5 227.25,192.21502 217,191.93003 v 60.86832 c 0,33.47757 0.3,61.16832 0.66667,61.53498 0.833,0.83301 75.58677,0.89038 77.75154,0.0597 z M 117,143.5 V 115 h 50.38337 50.38337 l 0.60297,-2.25 c 0.78742,-2.93824 0.80434,-16.132856 0.0233,-18.168213 C 217.84873,93.163409 211.50641,93 157,93 102.49359,93 96.151272,93.163409 95.606989,94.581787 94.776313,96.746494 94.83366,170.50033 95.666667,171.33333 96.033333,171.7 100.98333,172 106.66667,172 H 117 Z m 300,-11 V 93 h -61.03383 -61.03383 l 0.28383,10.75 0.28383,10.75 h 50.25012 50.25012 l -1.2e-4,28.75 L 396,172 h 10.5 10.5 z"
         id="path2" />
    </g>
  </g>
</svg>
