<?xml version="1.0" encoding="UTF-8" standalone="no"?>
<!-- Created with Inkscape (http://www.inkscape.org/) -->

<svg
   version="1.1"
   id="svg1"
   width="512"
   height="512"
   viewBox="0 0 512 512"
   xml:space="preserve"
   xmlns="http://www.w3.org/2000/svg"
   xmlns:svg="http://www.w3.org/2000/svg"><defs
     id="defs1" /><g
     id="g1"><g
       id="g10"
       transform="translate(536.6886,465.06328)"><path
         style="fill:#fefefe"
         d="m -290.1886,-231.3815 v -233.5 h 9 9 v 112 112 h 123.5 123.500001 v 9.5 9.5 h -123.500001 -123.5 v 112 111.9999998 h -9 -9 z"
         id="path17" /><path
         style="fill:#cbcbcb"
         d="m -290.69696,-231.3815 c 10e-6,-128.7 0.11626,-181.20141 0.25833,-116.66981 0.14207,64.53161 0.14206,169.83161 -2e-5,234 -0.14208,64.168396 -0.25832,11.36981 -0.25831,-117.33019 z m 18.99137,121.5 c 0,-61.875 0.12007,-87.1875 0.26682,-56.25 0.14675,30.9375 0.14675,81.5625 0,112.5 -0.14675,30.9375 -0.26682,5.625 -0.26682,-56.25 z m 0,-243 c 0,-61.875 0.12007,-87.1875 0.26682,-56.25 0.14675,30.9375 0.14675,81.5625 0,112.5 -0.14675,30.9375 -0.26682,5.625 -0.26682,-56.25 z"
         id="path16" /><path
         style="fill:#8e8e8e"
         d="m -286.4386,2.3812578 c 2.8875,-0.2020024 7.6125,-0.2020024 10.5,0 2.8875,0.2020025 0.525,0.3672773 -5.25,0.3672773 -5.775,0 -8.1375,-0.1652748 -5.25,-0.3672773 z m 76.5,-224.0126178 c 33.9625,-0.14597 89.5375,-0.14597 123.500001,0 33.9625,0.14597 6.175,0.2654 -61.750001,0.2654 -67.925,0 -95.7125,-0.11943 -61.75,-0.2654 z"
         id="path15" /><path
         style="fill:#656565"
         d="m -209.9386,-241.63136 c 33.9625,-0.14597 89.5375,-0.14597 123.500001,0 33.9625,0.14597 6.175,0.2654 -61.750001,0.2654 -67.925,0 -95.7125,-0.11943 -61.75,-0.2654 z"
         id="path14" /><path
         style="fill:#25a527"
         d="m -451.9386,2.3686841 c 29.5625,-0.1471573 77.9375,-0.1471573 107.5,0 29.5625,0.1471574 5.375,0.2675588 -53.75,0.2675588 -59.125,0 -83.3125,-0.1204014 -53.75,-0.2675588 z m 234,0 c 29.5625,-0.1471573 77.9375,-0.1471573 107.5,0 29.562501,0.1471574 5.375,0.2675588 -53.75,0.2675588 -59.125,0 -83.3125,-0.1204014 -53.75,-0.2675588 z"
         id="path13" /><path
         style="fill:#19b81d"
         d="m -418.73858,46.11167 c -29.33098,-2.490148 -55.94943,-14.465704 -77.45002,-34.844523 l -8.5,-8.0565204 h 223.5 223.500001 l -8.5,8.0565204 c -13.942671,13.215226 -30.465655,23.121396 -48.269441,28.939402 -20.10755,6.570842 -11.63996,6.229347 -160.23056,6.462039 -74.25,0.116275 -139.07249,-0.134338 -144.04998,-0.556918 z"
         id="path12" /><path
         style="fill:#3a413b"
         d="m -452.9386,1.3686841 c 29.5625,-0.1471573 77.9375,-0.1471573 107.5,0 29.5625,0.1471574 5.375,0.2675588 -53.75,0.2675588 -59.125,0 -83.3125,-0.1204014 -53.75,-0.2675588 z m 236,0 c 29.5625,-0.1471573 77.9375,-0.1471573 107.5,0 29.562501,0.1471574 5.375,0.2675588 -53.75,0.2675588 -59.125,0 -83.3125,-0.1204014 -53.75,-0.2675588 z"
         id="path11" /><path
         style="fill:#3a3a3a"
         d="m -399.18434,1.1252574 -107.49575,-0.50675764 -5.14624,-6.85685316 c -10.78247,-14.3665546 -19.46126,-34.6466106 -23.14541,-54.0847346 -1.57098,-8.288757 -1.71686,-20.911148 -1.71686,-148.558412 0,-127.64726 0.14588,-140.26966 1.71686,-148.55841 5.13507,-27.09337 17.06471,-49.79531 36.24707,-68.97767 14.85248,-14.85248 31.67692,-25.30104 50.80551,-31.55197 18.50313,-6.04654 19.28546,-6.10346 90.98056,-6.62001 l 65.75,-0.47372 v 233.59089 c 0,128.47499 -0.1125,233.4814307 -0.25,233.3476474 -0.1375,-0.1337833 -48.62308,-0.4712833 -107.74574,-0.75 z m 127.99566,-110.7567574 8e-5,-111.25 h 123.0805 123.080489 l -0.450364,76.75 c -0.493029,84.02085 -0.427509,83.022927 -6.714055,102.2605 -3.742901,11.453718 -11.47439,26.459792 -18.358795,35.6326466 l -5.146201,6.85685316 -107.745874,0.50000004 -107.74587,0.5 z m 8e-5,-243.84089 v -111.59089 l 65.75,0.47372 c 71.6951,0.51655 72.47743,0.57347 90.98056,6.62001 19.128593,6.25093 35.953032,16.69949 50.805517,31.55197 14.852485,14.85249 25.301041,31.67693 31.551973,50.80552 5.851519,17.90634 6.065351,20.47533 6.615624,79.48056 l 0.505926,54.25 h -123.1048 -123.1048 z"
         id="path10" /></g></g></svg>
